<svg xmlns="http://www.w3.org/2000/svg" width="35" height="35" viewBox="0 0 35 35" fill="none"><circle cx="17.5" cy="17.5" r="17.5" fill="#FA372C"></circle><path d="M12.4242 19.0025C14.3579 19.0025 15.9255 17.435 15.9255 15.5013C15.9255 13.5676 14.3579 12 12.4242 12C10.4905 12 8.92297 13.5676 8.92297 15.5013C8.92297 17.435 10.4905 19.0025 12.4242 19.0025Z" stroke="white" stroke-linecap="round" stroke-linejoin="round"></path><path d="M18.7264 13.4005H27.1295" stroke="white" stroke-linecap="round" stroke-linejoin="round"></path><path d="M18.7264 17.6021H27.1295" stroke="white" stroke-linecap="round" stroke-linejoin="round"></path><path d="M20.8271 21.8036H27.1294" stroke="white" stroke-linecap="round" stroke-linejoin="round"></path><path d="M7 23.2041C7.31083 22.0015 8.01239 20.9363 8.99446 20.1757C9.97653 19.4152 11.1834 19.0026 12.4255 19.0026C13.6676 19.0026 14.8746 19.4152 15.8566 20.1757C16.8387 20.9363 17.5403 22.0015 17.8511 23.2041" stroke="white" stroke-linecap="round" stroke-linejoin="round"></path></svg>