<svg xmlns="http://www.w3.org/2000/svg" width="35" height="36" viewBox="0 0 35 36" fill="none"><circle cx="17.5" cy="17.9735" r="17.5" fill="#FA372C"></circle><path d="M27 22.1119V12.8641C27 12.7311 26.9646 12.6004 26.8974 12.4855C26.8302 12.3706 26.7337 12.2757 26.6177 12.2105L18.3677 7.56983C18.2554 7.50668 18.1288 7.47351 18 7.47351C17.8712 7.47351 17.7446 7.50668 17.6323 7.56983L9.3823 12.2105C9.26632 12.2757 9.16978 12.3706 9.10259 12.4855C9.03541 12.6004 9 12.7311 9 12.8641V22.1119C9 22.2449 9.03541 22.3756 9.10259 22.4905C9.16978 22.6054 9.26632 22.7003 9.3823 22.7655L17.6323 27.4062C17.7446 27.4693 17.8712 27.5025 18 27.5025C18.1288 27.5025 18.2554 27.4693 18.3677 27.4062L26.6177 22.7655C26.7337 22.7003 26.8302 22.6054 26.8974 22.4905C26.9646 22.3756 27 22.2449 27 22.1119Z" stroke="white" stroke-linecap="round" stroke-linejoin="round"></path><path d="M22.5958 19.7857V14.9107L13.5 9.89401" stroke="white" stroke-linecap="round" stroke-linejoin="round"></path><path d="M26.8946 12.4842L18.087 17.4879L9.10193 12.4833" stroke="white" stroke-linecap="round" stroke-linejoin="round"></path><path d="M18.088 17.4878L18 27.5023" stroke="white" stroke-linecap="round" stroke-linejoin="round"></path></svg>