<svg xmlns="http://www.w3.org/2000/svg" width="35" height="36" viewBox="0 0 35 36" fill="none"><circle cx="17.5" cy="17.9735" r="17.5" fill="#FA372C"></circle><path d="M27.6052 16.375H22.0032V12.8737H25.7306C25.8706 12.8737 26.0073 12.9157 26.1232 12.9941C26.2391 13.0726 26.3288 13.184 26.3808 13.3139L27.6052 16.375Z" stroke="white" stroke-linecap="round" stroke-linejoin="round"></path><path d="M7.99817 18.4758H22.0032" stroke="white" stroke-linecap="round" stroke-linejoin="round"></path><path d="M23.0539 24.7781C24.2141 24.7781 25.1546 23.8375 25.1546 22.6773C25.1546 21.5171 24.2141 20.5765 23.0539 20.5765C21.8937 20.5765 20.9531 21.5171 20.9531 22.6773C20.9531 23.8375 21.8937 24.7781 23.0539 24.7781Z" stroke="white" stroke-miterlimit="10"></path><path d="M12.55 24.7781C13.7102 24.7781 14.6507 23.8375 14.6507 22.6773C14.6507 21.5171 13.7102 20.5765 12.55 20.5765C11.3898 20.5765 10.4492 21.5171 10.4492 22.6773C10.4492 23.8375 11.3898 24.7781 12.55 24.7781Z" stroke="white" stroke-miterlimit="10"></path><path d="M20.953 22.6773H14.6508" stroke="white" stroke-linecap="round" stroke-linejoin="round"></path><path d="M10.4491 22.6775H8.69842C8.5127 22.6775 8.33459 22.6037 8.20327 22.4724C8.07195 22.3411 7.99817 22.1629 7.99817 21.9772V12.1737C7.99817 11.988 8.07195 11.8098 8.20327 11.6785C8.33459 11.5472 8.5127 11.4734 8.69842 11.4734H22.0032V20.8581" stroke="white" stroke-linecap="round" stroke-linejoin="round"></path><path d="M22.0032 20.8579V16.375H27.6052V21.977C27.6052 22.1627 27.5314 22.3408 27.4001 22.4722C27.2688 22.6035 27.0907 22.6773 26.9049 22.6773H25.1543" stroke="white" stroke-linecap="round" stroke-linejoin="round"></path></svg>