<svg xmlns="http://www.w3.org/2000/svg" width="35" height="36" viewBox="0 0 35 36" fill="none"><circle cx="17.5" cy="17.9735" r="17.5" fill="#FA372C"></circle><path d="M18 26.4735C22.9706 26.4735 27 22.4441 27 17.4735C27 12.5029 22.9706 8.47351 18 8.47351C13.0294 8.47351 9 12.5029 9 17.4735C9 22.4441 13.0294 26.4735 18 26.4735Z" stroke="white" stroke-miterlimit="10"></path><path d="M9 17.4735H27" stroke="white" stroke-linecap="round" stroke-linejoin="round"></path><path d="M17.9988 26.232C20.0699 26.232 21.7488 22.3107 21.7488 17.4736C21.7488 12.6365 20.0699 8.71521 17.9988 8.71521C15.9278 8.71521 14.2488 12.6365 14.2488 17.4736C14.2488 22.3107 15.9278 26.232 17.9988 26.232Z" stroke="white" stroke-miterlimit="10"></path></svg>