<svg xmlns="http://www.w3.org/2000/svg" width="197" height="176" viewBox="0 0 197 176" fill="none"><path d="M43.5456 17.5874C48.2642 17.5874 52.0893 13.7622 52.0893 9.04369C52.0893 4.32514 48.2642 0.5 43.5456 0.5C38.8271 0.5 35.002 4.32514 35.002 9.04369C35.002 13.7622 38.8271 17.5874 43.5456 17.5874Z" fill="#FA372C"></path><path d="M43.2524 175.972C67.139 175.972 86.5029 156.608 86.5029 132.721C86.5029 108.835 67.139 89.4707 43.2524 89.4707C19.3658 89.4707 0.00195312 108.835 0.00195312 132.721C0.00195312 156.608 19.3658 175.972 43.2524 175.972Z" fill="#FA372C"></path><path d="M41.9595 139.107L36.2398 125.983H31.9696L26.2499 139.107L20.8436 125.983H14.8496L24.2519 148.548H28.5221L34.2418 135.424L39.6481 148.548H43.9183L53.3206 125.983H47.3266L41.9595 139.107Z" fill="white"></path><path d="M65.7003 114.661C62.2919 114.661 59.7063 117.521 59.7063 120.655C59.7063 124.063 62.5662 126.649 65.7003 126.649C69.1086 126.649 71.6942 123.789 71.6942 120.655C71.6942 117.521 69.1086 114.661 65.7003 114.661Z" fill="white"></path><path d="M168.002 57.4707C183.466 57.4707 196.002 44.9347 196.002 29.4707C196.002 14.0067 183.466 1.4707 168.002 1.4707C152.538 1.4707 140.002 14.0067 140.002 29.4707C140.002 44.9347 152.538 57.4707 168.002 57.4707Z" fill="#FA372C"></path></svg>